<svg width="117" height="100" viewBox="0 0 117 100" fill="none" xmlns="http://www.w3.org/2000/svg">
<path d="M107.488 31.1321C108.351 35.9965 106.29 42.6549 101.642 48.5203C94.9458 56.9703 82.7303 58.442 80.3654 56.5687C78.0011 54.6951 76.6416 42.4656 83.3381 34.0153C87.9275 28.224 93.846 24.7094 98.7432 24.3604L95.1251 37.7862L107.488 31.1321Z" fill="#FFF8FC"/>
<path d="M56.9017 15.1682C59.3345 15.3763 62.3801 17.2298 64.8141 20.2341C68.3207 24.5626 67.9614 30.6658 66.8461 31.5696C65.7308 32.4732 59.6858 31.5583 56.179 27.2298C53.7756 24.2633 52.5919 20.946 52.8525 18.5304L59.0408 22.0081L56.9017 15.1682Z" fill="#FFF8FC"/>
<path d="M86.6684 2.90535C87.3071 4.72691 86.9573 7.52408 85.5792 10.253C83.594 14.1839 79.0769 15.9021 78.064 15.3906C77.0511 14.8785 75.7525 10.2236 77.7373 6.29294C79.0977 3.59888 81.1066 1.67056 82.9329 1.07585L82.4303 6.66406L86.6684 2.90535Z" fill="#FFF8FC"/>
<path d="M60.392 70.4881L51.1709 69.0547C53.8486 66.6273 57.6535 64.5888 62.101 63.4408C71.8181 60.9329 81.71 66.7046 82.4126 69.4236C83.1144 72.1424 77.2516 81.9819 67.5341 84.4902C58.799 86.7448 50.5688 84.8075 47.904 80.1712L60.392 70.4881Z" fill="#FDF2F8"/>
<path d="M33.3971 55.2302C38.862 54.24 46.3892 56.5284 53.06 61.7265C62.6699 69.2151 64.5005 82.9339 62.4247 85.5978C60.3487 88.2617 46.5986 89.8391 36.9887 82.3506C30.4038 77.2192 26.3629 70.5858 25.899 65.0859L41.0665 69.0943L33.3971 55.2302Z" fill="#FCE7F3"/>
<path d="M57.64 74.6241C58.9375 81.9354 55.8383 91.9435 48.8521 100.759C38.7874 113.46 20.426 115.672 16.8725 112.856C13.3192 110.039 11.277 91.6588 21.3415 78.9584C28.2391 70.2544 37.1344 64.9723 44.4947 64.4475L39.0586 84.6252L57.64 74.6241Z" fill="#FDF2F8"/>
<path d="M95.4634 122.292C86.9355 124.418 74.8663 121.572 63.889 114.038C48.0747 103.185 43.9717 81.6846 47.008 77.2595C50.0446 72.8349 71.5829 68.9299 87.3975 79.783C98.235 87.2206 105.194 97.2945 106.412 105.943L82.145 101.162L95.4634 122.292Z" fill="#FFF8FC"/>
<path d="M73.2028 86.1974C76.3233 81.6035 83.2276 77.8335 91.6089 76.7116C103.684 75.0952 114.76 83.3952 115.208 86.7426C115.655 90.0903 107.153 101.011 95.0778 102.627C86.8019 103.735 79.2348 101.974 74.984 98.4523L88.4686 90.4302L73.2028 86.1974Z" fill="#FCE7F3"/>
<path d="M5.78137 77.5067C9.35866 76.0175 14.8303 76.4555 20.1517 79.0037C27.8179 82.6751 31.1108 91.7521 30.0933 93.8775C29.0756 96.0027 19.9394 99.1277 12.2728 95.4567C7.01885 92.9407 3.27465 89.0215 2.13882 85.3416L13.0746 85.8121L5.78137 77.5067Z" fill="#FCE7F3"/>
</svg>
