<svg width="173" height="48" viewBox="0 0 173 48" fill="none" xmlns="http://www.w3.org/2000/svg">
<path d="M35.2132 18.9135L26.8083 17.6063C29.2493 15.3942 32.7172 13.5366 36.7707 12.4903C45.6295 10.2038 54.6481 15.4662 55.2878 17.9448C55.9274 20.4236 50.5823 29.3933 41.7236 31.6798C33.76 33.7353 26.2574 31.9682 23.8286 27.741L35.2132 18.9135Z" fill="#FDF2F8"/>
<path d="M10.6044 5.00567C15.5863 4.10345 22.448 6.19001 28.5289 10.9286C37.2894 17.7554 38.9578 30.2614 37.0654 32.6898C35.1725 35.1182 22.6382 36.5564 13.8778 29.7301C7.87327 25.051 4.18813 19.0015 3.76671 13.9868L17.5954 17.6416L10.6044 5.00567Z" fill="#FCE7F3"/>
<path d="M32.7031 22.6838C33.8862 29.3491 31.0618 38.4737 24.6927 46.5108C15.5174 58.0888 -1.22054 60.1042 -4.45995 57.5371C-7.69935 54.9701 -9.56208 38.2144 -0.387106 26.6362C5.90086 18.7014 14.0102 13.8857 20.72 13.407L15.7641 31.801L32.7031 22.6838Z" fill="#FDF2F8"/>
<path d="M118.589 25.0588C123.627 25.8471 129.51 30.1123 133.807 36.6514C139.999 46.0719 137.626 58.5666 135.051 60.2589C132.476 61.9511 120.065 59.1729 113.874 49.7524C109.63 43.2955 108.032 36.2986 109.22 31.3705L121.25 39.44L118.589 25.0588Z" fill="#FFF8FC"/>
<path d="M67.1854 66.1431C59.4111 68.0811 48.4077 65.4866 38.4003 58.6188C23.9836 48.7249 20.2439 29.124 23.0118 25.0899C25.78 21.0563 45.4147 17.4964 59.8317 27.3904C69.7114 34.1706 76.0564 43.3539 77.1669 51.2379L55.0423 46.8798L67.1854 66.1431Z" fill="#FFF8FC"/>
<path d="M85.9431 50.9222C85.3125 45.8761 87.7799 38.9912 92.8612 32.9469C100.181 24.2399 112.801 22.8022 115.13 24.7598C117.459 26.7176 118.212 39.3974 110.892 48.1048C105.875 54.0721 99.6137 57.6715 94.5674 57.9989L98.9874 44.1151L85.9431 50.9222Z" fill="#FDF2F8"/>
<path d="M46.891 33.2357C49.7357 29.0475 56.0303 25.61 63.6712 24.5872C74.6791 23.1138 84.7758 30.68 85.185 33.7317C85.5935 36.7833 77.8419 46.7389 66.8336 48.2125C59.2892 49.2223 52.3916 47.617 48.5164 44.4069L60.8082 37.0942L46.891 33.2357Z" fill="#FCE7F3"/>
<path d="M130.45 52.7196C128.997 48.675 129.759 42.5419 132.83 36.6182C137.255 28.0833 147.397 24.5629 149.679 25.7466C151.962 26.9312 154.928 37.247 150.503 45.7815C147.47 51.6303 142.974 55.7574 138.873 56.9612L139.948 44.6926L130.45 52.7196Z" fill="#FDF2F8"/>
<path d="M18.5255 40.5263C20.3488 39.4371 23.3504 39.2431 26.4374 40.207C30.8848 41.5957 33.385 46.2615 33.0001 47.4943C32.6142 48.7273 27.9039 51.1401 23.457 49.7515C20.4095 48.7998 18.0699 46.9688 17.1644 45.0621L23.1348 44.4568L18.5255 40.5263Z" fill="#FCE7F3"/>
<path d="M106.706 30.4702C106.943 36.2302 103.512 43.6945 97.2096 49.9029C88.1299 58.8473 73.7512 58.9734 71.3065 56.4917C68.8618 54.01 69.2038 39.6348 78.2835 30.6905C84.506 24.5608 91.9107 21.2459 97.6371 21.4746L91.3438 36.5954L106.706 30.4702Z" fill="#FFF8FC"/>
<path d="M170.686 49.3102C167.702 51.5966 162.434 52.5652 156.76 51.5303C148.585 50.0394 143.129 42.4167 143.536 40.1826C143.944 37.9484 151.74 32.7429 159.914 34.2336C165.515 35.255 170.058 37.962 172.082 41.1015L161.66 43.4115L170.686 49.3102Z" fill="#FFF8FC"/>
<path d="M143.939 32.3773C145.507 36.2776 144.958 42.207 142.122 47.9453C138.037 56.2118 128.146 59.6621 125.854 58.5296C123.563 57.3963 120.296 47.4438 124.381 39.1776C127.181 33.5126 131.483 29.5038 135.49 28.3212L134.832 40.1782L143.939 32.3773Z" fill="#FCE7F3"/>
</svg>
