<svg width="410" height="113" viewBox="0 0 410 113" fill="none" xmlns="http://www.w3.org/2000/svg">
<path d="M105.943 41.7181L87.3935 38.8326C92.7776 33.9511 100.433 29.8564 109.376 27.5479C128.915 22.5047 148.806 34.1116 150.217 39.5783C151.628 45.0452 139.839 64.8277 120.3 69.8708C102.737 74.404 86.1902 70.5094 80.8318 61.1877L105.943 41.7181Z" fill="#FDF2F8"/>
<path d="M51.6644 11.0393C62.6525 9.04939 77.7862 13.6523 91.1982 24.1035C110.52 39.1604 114.202 66.7434 110.028 72.1001C105.854 77.4564 78.2069 80.6281 58.8844 65.5712C45.6426 55.2524 37.517 41.9128 36.5858 30.8534L67.084 38.9133L51.6644 11.0393Z" fill="#FCE7F3"/>
<path d="M100.407 50.0343C103.015 64.735 96.7849 84.8583 82.738 102.584C62.5012 128.121 25.5831 132.567 18.4383 126.905C11.2935 121.243 7.18601 84.286 27.4228 58.7491C41.2914 41.2483 59.1765 30.628 73.9755 29.5723L63.0442 70.1438L100.407 50.0343Z" fill="#FDF2F8"/>
<path d="M289.834 55.2696C300.945 57.0082 313.92 66.4156 323.399 80.8379C337.055 101.616 331.821 129.175 326.142 132.907C320.463 136.64 293.089 130.511 279.433 109.733C270.075 95.4942 266.554 80.065 269.172 69.1959L295.703 86.9933L289.834 55.2696Z" fill="#FFF8FC"/>
<path d="M176.457 145.885C159.311 150.159 135.042 144.432 112.971 129.285C81.1738 107.463 72.9249 64.232 79.03 55.335C85.1354 46.4385 128.442 38.5868 160.239 60.4086C182.033 75.3647 196.027 95.6231 198.474 113.013L149.677 103.399L176.457 145.885Z" fill="#FFF8FC"/>
<path d="M217.83 112.315C216.44 101.186 221.882 86.0017 233.088 72.6711C249.233 53.466 277.069 50.2943 282.206 54.6125C287.342 58.9313 289.001 86.8977 272.856 106.103C261.791 119.264 247.981 127.202 236.851 127.924L246.6 97.302L217.83 112.315Z" fill="#FDF2F8"/>
<path d="M131.698 73.3064C137.972 64.0686 151.855 56.4872 168.708 54.2314C192.988 50.9816 215.257 67.67 216.158 74.4005C217.059 81.1311 199.963 103.089 175.683 106.339C159.044 108.566 143.83 105.025 135.283 97.945L162.394 81.8179L131.698 73.3064Z" fill="#FCE7F3"/>
<path d="M315.996 116.28C312.79 107.359 314.468 93.8303 321.243 80.7635C331.003 61.9395 353.37 54.1746 358.405 56.7846C363.44 59.3952 369.983 82.1499 360.223 100.974C353.534 113.875 343.615 122.977 334.57 125.632L336.944 98.5758L315.996 116.28Z" fill="#FDF2F8"/>
<path d="M69.1341 89.3821C73.1557 86.9799 79.7774 86.5539 86.5859 88.6798C96.395 91.7428 101.91 102.033 101.061 104.752C100.212 107.471 89.8213 112.795 80.0122 109.732C73.2896 107.633 68.1307 103.592 66.1341 99.3859L79.3009 98.0526L69.1341 89.3821Z" fill="#FCE7F3"/>
<path d="M263.625 67.2063C264.149 79.9105 256.58 96.374 242.68 110.067C222.655 129.794 190.941 130.073 185.548 124.6C180.156 119.126 180.91 87.4189 200.936 67.6913C214.661 54.1715 230.993 46.863 243.623 47.3677L229.743 80.716L263.625 67.2063Z" fill="#FFF8FC"/>
<path d="M404.735 108.759C398.155 113.8 386.536 115.934 374.022 113.652C355.993 110.364 343.958 93.5507 344.857 88.6231C345.755 83.6955 362.951 72.2137 380.98 75.5016C393.335 77.7549 403.356 83.727 407.821 90.6531L384.829 95.7493L404.735 108.759Z" fill="#FFF8FC"/>
<path d="M345.746 71.4117C349.203 80.014 347.993 93.0907 341.739 105.746C332.728 123.978 310.913 131.588 305.859 129.091C300.805 126.593 293.599 104.641 302.61 86.4081C308.785 73.913 318.273 65.0724 327.111 62.4647L325.66 88.6136L345.746 71.4117Z" fill="#FCE7F3"/>
</svg>
