<svg width="239" height="186" viewBox="0 0 239 186" fill="none" xmlns="http://www.w3.org/2000/svg">
<path d="M191.664 59.648C193.318 68.9683 189.367 81.7266 180.462 92.9649C167.632 109.155 144.226 111.974 139.696 108.385C135.166 104.795 132.561 81.3638 145.391 65.1733C154.184 54.0776 165.524 47.3444 174.907 46.6753L167.976 72.3974L191.664 59.648Z" fill="#FFF8FC"/>
<path d="M105.14 29.0598C109.802 29.4579 115.637 33.0119 120.301 38.7685C127.019 47.0618 126.331 58.7546 124.195 60.4864C122.058 62.2176 110.476 60.465 103.757 52.1717C99.1512 46.4871 96.8826 40.1303 97.3827 35.5018L109.239 42.1659L105.14 29.0598Z" fill="#FFF8FC"/>
<path d="M162.175 5.56683C163.398 9.05683 162.728 14.4153 160.088 19.6432C156.285 27.1748 147.63 30.4674 145.689 29.4876C143.748 28.5076 141.26 19.5877 145.063 12.0559C147.67 6.89471 151.517 3.20076 155.016 2.06105L154.053 12.7686L162.175 5.56683Z" fill="#FFF8FC"/>
<path d="M123.019 143.582L104.227 140.659C109.682 135.714 117.437 131.565 126.498 129.226C146.292 124.118 166.442 135.876 167.872 141.414C169.3 146.953 157.358 166.993 137.565 172.102C119.772 176.694 103.009 172.749 97.5801 163.306L123.019 143.582Z" fill="#FDF2F8"/>
<path d="M68.0309 112.501C79.1626 110.485 94.4946 115.148 108.082 125.736C127.657 140.99 131.386 168.935 127.157 174.361C122.928 179.787 94.9201 182.999 75.3456 167.746C61.931 157.292 53.6998 143.779 52.7562 132.575L83.6524 140.741L68.0309 112.501Z" fill="#FCE7F3"/>
<path d="M117.411 152.005C120.053 166.898 113.741 187.284 99.5109 205.242C79.0097 231.112 41.6098 235.616 34.3714 229.88C27.1333 224.144 22.972 186.705 43.4732 160.834C57.5234 143.104 75.6425 132.344 90.6352 131.275L79.5602 172.377L117.411 152.005Z" fill="#FDF2F8"/>
<path d="M194.456 249.11C177.085 253.439 152.5 247.638 130.141 232.293C97.928 210.186 89.571 166.389 95.756 157.376C101.941 148.363 145.813 140.41 178.027 162.517C200.104 177.668 214.281 198.19 216.76 215.806L167.326 206.067L194.456 249.11Z" fill="#FFF8FC"/>
<path d="M149.111 175.582C155.467 166.224 169.531 158.543 186.604 156.258C211.201 152.965 233.762 169.872 234.674 176.691C235.587 183.51 218.267 205.753 193.67 209.046C176.813 211.302 161.401 207.715 152.743 200.542L180.207 184.204L149.111 175.582Z" fill="#FCE7F3"/>
<path d="M11.7766 157.882C19.0633 154.848 30.2082 155.74 41.0475 160.931C56.6641 168.409 63.3723 186.9 61.2993 191.229C59.2257 195.558 40.6145 201.923 24.9983 194.445C14.2958 189.32 6.66972 181.336 4.35663 173.84L26.6334 174.799L11.7766 157.882Z" fill="#FCE7F3"/>
<path d="M139.985 189.02C142.55 187.488 146.774 187.216 151.117 188.572C157.375 190.526 160.893 197.089 160.351 198.824C159.81 200.559 153.181 203.956 146.924 202.002C142.636 200.663 139.346 198.085 138.072 195.402L146.471 194.551L139.985 189.02Z" fill="#FCE7F3"/>
</svg>
