<svg width="61" height="54" viewBox="0 0 61 54" fill="none" xmlns="http://www.w3.org/2000/svg">
<path d="M10.389 2.06149C13.5706 2.55394 16.9625 5.12658 19.1085 9.0522C22.1997 14.7071 19.454 22.1619 17.625 23.1617C15.7955 24.1611 8.03937 22.4473 4.94832 16.7927C2.82973 12.9171 2.47493 8.73046 3.72023 5.79148L10.7176 10.6641L10.389 2.06149Z" fill="#FFDBED"/>
<path d="M53.9423 9.65803C56.1866 15.2424 55.4017 23.7321 51.3415 31.9476C45.4921 43.7828 31.3315 48.7218 28.0499 47.1008C24.769 45.4794 20.0912 31.2298 25.9403 19.394C29.9493 11.282 36.1092 5.54253 41.8466 3.8501L40.9047 20.8256L53.9423 9.65803Z" fill="#FCE7F3"/>
</svg>
