<svg width="61" height="54" viewBox="0 0 61 54" fill="none" xmlns="http://www.w3.org/2000/svg">
<path d="M50.3165 2.06149C47.1348 2.55394 43.7429 5.12658 41.597 9.0522C38.5058 14.7071 41.2514 22.1619 43.0804 23.1617C44.91 24.1611 52.6661 22.4473 55.7571 16.7927C57.8757 12.9171 58.2305 8.73046 56.9852 5.79148L49.9878 10.6641L50.3165 2.06149Z" fill="#FCE7F3"/>
<path d="M6.76312 9.65803C4.51886 15.2424 5.30373 23.7321 9.36395 31.9476C15.2133 43.7828 29.374 48.7218 32.6556 47.1008C35.9365 45.4794 40.6143 31.2298 34.7652 19.394C30.7561 11.282 24.5963 5.54253 18.8589 3.8501L19.8007 20.8256L6.76312 9.65803Z" fill="#FFDBED"/>
</svg>
