<svg width="20" height="20" viewBox="0 0 20 20" fill="none" xmlns="http://www.w3.org/2000/svg">
<path d="M17.782 17.4229C17.5808 17.6596 15.6901 20.1757 12.6807 19.1156C9.931 18.1103 7.50123 16.372 5.64852 14.0848C3.73542 11.8515 2.45427 9.13726 1.94036 6.22874C1.41794 3.04976 4.19101 1.59306 4.45588 1.43252C4.72075 1.27198 5.88412 0.992333 6.40581 1.77802C7.06654 2.96152 7.58133 4.22244 7.93868 5.53257C8.02136 6.10963 7.4265 6.74883 6.73653 6.88051C6.04655 7.0122 6.08314 7.37249 6.08314 7.37249C6.08314 7.37249 6.46507 8.77814 8.71719 11.4762C10.9693 14.1743 12.2651 14.7943 12.2651 14.7943C12.2651 14.7943 12.6097 14.889 12.8548 14.2269C12.9546 13.9106 13.1615 13.6401 13.439 13.4628C13.7166 13.2856 14.0471 13.2129 14.3724 13.2577C15.5888 13.8361 16.7307 14.5628 17.7725 15.4217C18.4485 16.0749 17.9803 17.1861 17.7783 17.4229" fill="#E1398E"/>
</svg>
